<svg xmlns="http://www.w3.org/2000/svg" viewBox="0 0 80 80" width="30px" height="30px"><path fill="#dbf2ff" d="M6.5 77.5L6.5 26.286 39.996 6.58 73.5 26.286 73.5 77.5z"/><path fill="#7496c4" d="M39.996,7.16L73,26.572V77H7V26.572L39.996,7.16 M39.996,6L6,26v52h68V26L39.996,6L39.996,6z"/><path fill="#b5ddf5" d="M7 71H73V77H7z"/><path fill="#f78f8f" d="M39.995 9.875L2.5 32.801 2.5 25.511 39.995 2.586 77.5 25.511 77.5 32.801z"/><path fill="#c74343" d="M39.995,3.172L77,25.792v6.117L40.517,9.608l-0.522-0.319l-0.522,0.319L3,31.909v-6.117 L39.995,3.172 M39.995,2L2,25.231v8.462l37.995-23.231L78,33.692v-8.462L39.995,2L39.995,2z"/><g><path fill="#ffc49c" d="M28.5 42.5H51.5V77.5H28.5z"/><path fill="#a16a4a" d="M51,43v34H29V43H51 M52,42H28v36h24V42L52,42z"/></g><path fill="#a16a4a" d="M46.5 60A1.5 1.5 0 1 0 46.5 63A1.5 1.5 0 1 0 46.5 60Z"/></svg>